<svg width="875" height="720" xmlns="http://www.w3.org/2000/svg" xmlns:xlink="http://www.w3.org/1999/xlink" xml:space="preserve" overflow="hidden"><g transform="translate(-185 0)"><path d="M437.69 109.375C618.805 109.375 765.626 256.196 765.626 437.31 765.626 618.424 618.805 765.246 437.69 765.246 256.576 765.246 109.755 618.424 109.755 437.31 109.961 256.282 256.662 109.582 437.69 109.377M437.69 91.1458C246.509 91.1453 91.5259 246.128 91.525 437.309 91.5241 628.491 246.508 783.474 437.689 783.475 628.87 783.476 783.853 628.492 783.854 437.311 783.939 246.216 629.095 91.2333 437.999 91.1486 437.896 91.1486 437.793 91.1486 437.69 91.1486Z" fill="#196B24" transform="matrix(1 0 0 1.00019 185 -77.5836)"/><path d="M440.932 580.143 440.932 302.722C440.932 302.614 440.864 302.582 440.781 302.652L435.668 307.079C430.472 311.477 424.985 315.52 419.244 319.18 413.116 323.123 406.792 326.853 400.446 330.271 394.059 333.706 387.601 336.821 381.259 339.545 376.492 341.584 371.935 343.39 367.659 344.93L367.659 327.591C384.006 322.108 399.663 314.751 414.317 305.668 429.894 295.973 444.703 285.098 458.614 273.135L461.89 273.304 461.89 580.143Z" fill="#196B24" transform="matrix(1 0 0 1.00019 185 -77.5836)"/></g></svg>