<svg width="875" height="720" xmlns="http://www.w3.org/2000/svg" xmlns:xlink="http://www.w3.org/1999/xlink" xml:space="preserve" overflow="hidden"><g transform="translate(-185 0)"><path d="M437.5 109.375C618.773 109.319 765.77 256.226 765.826 437.5 765.881 618.773 618.974 765.77 437.701 765.826 256.427 765.881 109.431 618.974 109.375 437.701 109.375 437.664 109.375 437.628 109.375 437.591 109.555 256.432 256.342 109.607 437.5 109.375M437.5 91.1458C246.158 91.0905 91.0007 246.158 90.9453 437.5 90.89 628.841 245.958 783.999 437.299 784.055 628.641 784.11 783.799 629.042 783.854 437.701 783.854 437.664 783.854 437.628 783.854 437.591 783.96 246.361 629.022 91.2516 437.792 91.1458 437.694 91.1458 437.598 91.1458 437.5 91.1458Z" fill="#747474" transform="matrix(1 0 0 1.00019 185 -77.5836)"/><path d="M325.272 580.143 325.272 302.723C325.272 302.613 325.208 302.586 325.126 302.65L320.004 307.052C314.817 311.463 309.335 315.516 303.598 319.184 297.482 323.112 291.147 326.84 284.794 330.267 278.441 333.694 271.97 336.82 265.654 339.546 260.878 341.587 256.32 343.392 252.036 344.932L252.036 327.615C268.39 322.136 284.052 314.779 298.712 305.694 314.289 296.001 329.098 285.125 343.009 273.164L346.281 273.328 346.281 580.143Z" fill="#747474" transform="matrix(1 0 0 1.00019 185 -77.5836)"/><path d="M507.518 585.275C494.333 585.492 481.322 582.245 469.784 575.859 458.199 569.052 448.49 559.47 441.529 547.978 432.935 533.621 426.865 517.9 423.582 501.493 419.178 480.145 417.088 458.384 417.348 436.589 417.348 383.04 425.852 342.171 442.622 315.118 457.232 289.585 484.731 274.188 514.135 275.078 573.262 275.078 603.24 326.831 603.24 428.905 603.512 451.701 601.315 474.459 596.686 496.781 593.182 514.061 586.785 530.624 577.764 545.772 570.412 557.983 560.102 568.146 547.786 575.322 535.455 582.079 521.577 585.509 507.518 585.275ZM512.431 292.578C488.469 292.578 469.975 304.792 457.47 328.9 445.329 352.315 439.177 387.816 439.177 434.401 439.177 477.44 445.074 510.672 456.723 533.176 465.977 554.589 487.174 568.359 510.499 568.112 521.526 568.284 532.341 565.075 541.488 558.915 551.038 552.059 558.7 542.901 563.764 532.292 570.206 518.88 574.65 504.599 576.953 489.9 580.078 470.864 581.557 451.595 581.374 432.305 581.41 339.609 558.204 292.578 512.431 292.578Z" fill="#747474" transform="matrix(1 0 0 1.00019 185 -77.5836)"/></g></svg>