<svg width="875" height="720" xmlns="http://www.w3.org/2000/svg" xmlns:xlink="http://www.w3.org/1999/xlink" xml:space="preserve" overflow="hidden"><g transform="translate(-185 0)"><path d="M437.691 109.375C618.805 109.375 765.625 256.195 765.625 437.309 765.625 618.422 618.805 765.242 437.691 765.242 256.578 765.242 109.758 618.422 109.758 437.309 109.964 256.281 256.664 109.581 437.691 109.375M437.691 91.1458C246.511 91.1458 91.5286 246.128 91.5286 437.309 91.5286 628.489 246.511 783.471 437.691 783.471 628.872 783.471 783.854 628.489 783.854 437.309 783.944 246.219 629.109 91.2361 438.02 91.1458 437.91 91.1457 437.801 91.1457 437.691 91.1458Z" fill="#000000" fill-opacity="0.6" transform="matrix(1 0 0 1.00019 185 -77.5836)"/><path d="M347.612 580.143 347.612 568.595C347.387 556.88 348.957 545.199 352.27 533.96 355.459 524.104 360.382 514.896 366.807 506.771 374.415 497.284 383.058 488.676 392.574 481.104 403.111 472.536 416.008 462.729 430.901 451.937 441.018 444.518 450.151 437.236 458.044 430.281 465.549 423.763 472.303 416.425 478.178 408.406 483.53 401.002 487.715 392.818 490.583 384.143 493.487 374.91 494.911 365.275 494.803 355.596 494.953 346.42 493.392 337.295 490.201 328.69 484.601 313.487 472.367 301.672 456.978 296.607 448.722 293.858 440.067 292.502 431.366 292.596 417.135 292.612 403.118 296.051 390.496 302.622 379.323 308.437 368.935 315.646 359.579 324.078L359.579 302.194C369.715 294.054 380.983 287.437 393.03 282.552 406.489 277.407 420.805 274.873 435.212 275.087 437.548 275.082 439.883 275.218 442.203 275.497 444.514 275.784 446.805 276.204 449.066 276.755 458.706 277.71 468.109 280.324 476.857 284.484 484.83 288.315 492.008 293.619 498.012 300.116 503.991 306.742 508.6 314.487 511.574 322.902 514.897 332.398 516.533 342.401 516.405 352.461 516.568 364.069 514.892 375.63 511.437 386.714 508.174 396.679 503.387 406.077 497.246 414.577 490.731 423.478 483.227 431.611 474.879 438.822 466.102 446.478 456.158 454.316 445.311 462.027 433.098 470.823 422.47 478.725 413.72 485.479 405.835 491.454 398.424 498.03 391.553 505.148 386.064 510.809 381.455 517.261 377.882 524.289 374.654 530.937 372.404 538.016 371.201 545.307 370.863 547.586 370.663 549.6 370.417 551.833 370.184 554.148 370.071 556.472 370.079 558.797L370.079 561.978 522.594 561.978 522.594 580.207Z" fill="#000000" fill-opacity="0.6" transform="matrix(1 0 0 1.00019 185 -77.5836)"/></g></svg>