<svg width="875" height="720" xmlns="http://www.w3.org/2000/svg" xmlns:xlink="http://www.w3.org/1999/xlink" xml:space="preserve" overflow="hidden"><g transform="translate(-185 0)"><path d="M437.691 109.375C618.805 109.375 765.625 256.195 765.625 437.309 765.625 618.422 618.805 765.242 437.691 765.242 256.578 765.242 109.758 618.422 109.758 437.309 109.964 256.281 256.664 109.581 437.691 109.375M437.691 91.1458C246.511 91.1458 91.5286 246.128 91.5286 437.309 91.5286 628.489 246.511 783.471 437.691 783.471 628.872 783.471 783.854 628.489 783.854 437.309 783.944 246.219 629.109 91.2361 438.02 91.1458 437.91 91.1457 437.801 91.1457 437.691 91.1458Z" fill="#A6CAEC" fill-opacity="0.6" transform="matrix(1 0 0 1.00019 185 -77.5836)"/><path d="M416.418 594.599C394.041 595.109 371.902 589.905 352.096 579.478L352.096 557.165C371.431 570 394.061 576.979 417.266 577.263 426.992 577.289 436.68 576.033 446.077 573.526 455.068 571.169 463.525 567.109 470.987 561.568 478.332 556.003 484.31 548.833 488.46 540.604 493.032 531.135 495.279 520.711 495.013 510.198 496.167 490.312 487.189 471.19 471.151 459.375 455.656 448.201 432.697 442.54 402.956 442.54L381.792 442.54 381.792 425.223 401.042 425.223C428.13 425.223 448.911 419.754 462.82 408.816 477.272 397.073 485.201 379.1 484.13 360.509 485.178 344.39 479.438 328.566 468.298 316.868 455.275 305.928 438.506 300.486 421.54 301.693 401.02 302.073 381.052 308.406 364.064 319.922L364.064 300.207C383.52 289.776 405.234 284.272 427.31 284.174 437.557 284.147 447.754 285.612 457.579 288.522 466.707 291.18 475.227 295.595 482.663 301.52 489.854 307.393 495.685 314.757 499.753 323.103 504.188 332.575 506.372 342.943 506.133 353.4 506.133 393.03 487.047 417.676 447.799 428.732L445.475 429.379 445.475 435.495 448.31 435.823C457.636 436.852 466.759 439.257 475.38 442.96 483.444 446.403 490.795 451.32 497.055 457.461 503.254 463.65 508.172 471 511.529 479.09 515.165 488.012 516.969 497.574 516.833 507.208 517.073 520.066 514.406 532.813 509.031 544.496 504.012 555.074 496.716 564.411 487.667 571.84 478.196 579.472 467.357 585.229 455.729 588.802 443 592.737 429.742 594.692 416.418 594.599Z" fill="#A6CAEC" fill-opacity="0.6" transform="matrix(1 0 0 1.00019 185 -77.5836)"/></g></svg>