<svg width="875" height="720" xmlns="http://www.w3.org/2000/svg" xmlns:xlink="http://www.w3.org/1999/xlink" xml:space="preserve" overflow="hidden"><g transform="translate(-185 0)"><path d="M437.691 109.375C618.805 109.375 765.625 256.195 765.625 437.309 765.625 618.422 618.805 765.242 437.691 765.242 256.578 765.242 109.758 618.422 109.758 437.309 109.964 256.281 256.664 109.581 437.691 109.375M437.691 91.1458C246.511 91.1458 91.5286 246.128 91.5286 437.309 91.5286 628.489 246.511 783.471 437.691 783.471 628.872 783.471 783.854 628.489 783.854 437.309 783.944 246.219 629.109 91.2361 438.02 91.1458 437.91 91.1457 437.801 91.1457 437.691 91.1458Z" fill="#A02B93" transform="matrix(1 0 0 1.00019 185 -77.5836)"/><path d="M458.518 580.143 458.518 504.1 313.469 504.1 313.469 483.365C326.576 468.781 340.247 452.375 353.901 435.249 367.737 417.867 381.181 399.911 393.85 381.901 406.52 363.891 418.35 345.862 429.005 328.316 438.559 312.73 447.308 296.664 455.219 280.182L479.272 280.182 479.272 485.689 527.124 485.689 527.124 504.1 479.272 504.1 479.272 580.143ZM452.566 319.202C442.139 337.23 431.603 354.32 421.267 369.988 410.931 385.656 400.814 400.285 391.116 413.665 381.418 427.046 372.039 439.387 363.225 450.388 354.411 461.389 346.19 471.506 338.789 480.466L334.505 485.661 334.505 485.661 458.518 485.661 458.518 308.93 458.518 308.93Z" fill="#A02B93" transform="matrix(1 0 0 1.00019 185 -77.5836)"/></g></svg>