<svg width="875" height="720" xmlns="http://www.w3.org/2000/svg" xmlns:xlink="http://www.w3.org/1999/xlink" xml:space="preserve" overflow="hidden"><g transform="translate(-185 0)"><path d="M437.691 109.375C618.805 109.375 765.625 256.195 765.625 437.309 765.625 618.422 618.805 765.242 437.691 765.242 256.578 765.242 109.758 618.422 109.758 437.309 109.964 256.281 256.664 109.581 437.691 109.375M437.691 91.1458C246.511 91.1458 91.5286 246.128 91.5286 437.309 91.5286 628.489 246.511 783.471 437.691 783.471 628.872 783.471 783.854 628.489 783.854 437.309 783.944 246.219 629.109 91.2361 438.02 91.1458 437.91 91.1457 437.801 91.1457 437.691 91.1458Z" fill="#4EA72E" transform="matrix(1 0 0 1.00019 185 -77.5836)"/><path d="M416.837 585.275C397.33 586.089 377.895 582.422 360.026 574.556L360.026 552.116C377.64 562.322 397.576 567.842 417.931 568.148 429.058 568.292 440.125 566.494 450.634 562.835 459.972 559.545 468.532 554.366 475.781 547.622 482.781 540.952 488.254 532.847 491.823 523.861 495.615 514.158 497.507 503.817 497.392 493.4 498.642 473.043 490.598 453.217 475.517 439.487 461.171 427.219 439.915 420.993 412.344 420.993 402.181 420.993 387.661 421.75 369.186 423.263L378.173 280.164 505.504 280.164 505.504 298.576 395.482 298.576 388.637 404.542 392.283 404.268C404.523 403.43 414.367 403.001 421.54 403.001 435.789 402.763 449.983 404.838 463.568 409.145 474.798 412.762 485.144 418.696 493.938 426.562 502.173 434.157 508.545 443.548 512.559 454.007 516.984 465.855 519.148 478.429 518.939 491.076 519.102 504.245 516.783 517.328 512.103 529.639 507.783 540.844 501.045 550.958 492.37 559.262 483.163 567.807 472.268 574.327 460.387 578.402 446.371 583.17 431.64 585.495 416.837 585.275Z" fill="#4EA72E" transform="matrix(1 0 0 1.00019 185 -77.5836)"/></g></svg>