<svg width="875" height="720" xmlns="http://www.w3.org/2000/svg" xmlns:xlink="http://www.w3.org/1999/xlink" xml:space="preserve" overflow="hidden"><g transform="translate(-185 0)"><path d="M437.5 109.375C618.773 109.319 765.77 256.226 765.826 437.5 765.881 618.773 618.974 765.77 437.701 765.826 256.427 765.881 109.431 618.974 109.375 437.701 109.375 437.664 109.375 437.628 109.375 437.591 109.555 256.432 256.342 109.607 437.5 109.375M437.5 91.1458C246.158 91.0905 91.0007 246.158 90.9453 437.5 90.89 628.841 245.958 783.999 437.299 784.055 628.641 784.11 783.799 629.042 783.854 437.701 783.854 437.664 783.854 437.628 783.854 437.591 783.954 246.355 629.009 91.2461 437.773 91.1458 437.682 91.1458 437.591 91.1458 437.5 91.1458Z" fill="#A6CAEC" transform="matrix(1 0 0 1.00019 185 -77.5836)"/><path d="M432.104 585.484C405.312 586.297 380.066 572.958 365.641 550.366 357.182 537.193 351.084 522.648 347.621 507.382 343.185 488.159 341.061 468.474 341.296 448.747 341.057 424.552 343.859 400.422 349.635 376.924 354.348 357.4 362.399 338.836 373.434 322.055 382.973 307.707 395.736 295.789 410.703 287.255 425.838 278.993 442.854 274.791 460.095 275.06 475.219 274.668 490.285 277.069 504.538 282.142L504.538 302.076C490.633 295.793 475.545 292.555 460.286 292.578 446.05 292.404 432.029 296.058 419.69 303.16 407.292 310.538 396.796 320.721 389.047 332.892 380.179 346.901 373.685 362.277 369.824 378.401 365.186 397.444 362.935 416.989 363.125 436.589L363.125 439.779 369.141 439.779 370.052 437.956C382.162 410.251 410.273 393.047 440.453 394.871 452.083 394.704 463.616 397.013 474.286 401.643 484.145 406.025 492.956 412.458 500.135 420.51 507.515 428.946 513.175 438.742 516.797 449.349 520.832 461.177 522.832 473.603 522.712 486.099 522.853 499.762 520.567 513.341 515.958 526.203 511.804 537.77 505.422 548.41 497.173 557.521 489.117 566.26 479.355 573.255 468.49 578.074 457.022 583.089 444.62 585.615 432.104 585.484ZM434.246 412.453C424.761 412.379 415.374 414.374 406.738 418.296 398.49 422.033 391.057 427.356 384.863 433.964 378.748 440.541 373.903 448.191 370.572 456.531 367.158 464.989 365.413 474.026 365.431 483.146 365.374 494.152 367.006 505.101 370.271 515.612 373.243 525.328 377.902 534.445 384.034 542.546 389.824 550.154 397.153 556.455 405.544 561.039 414.149 565.664 423.784 568.037 433.553 567.939 452.216 568.189 470.007 560.053 482.025 545.772 488.084 538.511 492.766 530.205 495.842 521.263 499.25 511.338 500.937 500.904 500.828 490.41 500.927 479.664 499.391 468.966 496.271 458.682 493.565 449.675 489.118 441.286 483.182 433.991 477.488 427.169 470.321 421.727 462.219 418.077 453.404 414.224 443.865 412.306 434.246 412.453Z" fill="#A6CAEC" transform="matrix(1 0 0 1.00019 185 -77.5836)"/></g></svg>