<svg width="875" height="720" xmlns="http://www.w3.org/2000/svg" xmlns:xlink="http://www.w3.org/1999/xlink" xml:space="preserve" overflow="hidden"><g transform="translate(-185 0)"><path d="M437.5 109.375C618.773 109.319 765.77 256.226 765.826 437.5 765.881 618.773 618.974 765.77 437.701 765.826 256.427 765.881 109.431 618.974 109.375 437.701 109.375 437.664 109.375 437.628 109.375 437.591 109.555 256.432 256.342 109.607 437.5 109.375M437.5 91.1458C246.158 91.0905 91.0007 246.158 90.9453 437.5 90.89 628.841 245.958 783.999 437.299 784.055 628.641 784.11 783.799 629.042 783.854 437.701 783.854 437.664 783.854 437.628 783.854 437.591 783.954 246.355 629.009 91.2461 437.773 91.1458 437.682 91.1458 437.591 91.1458 437.5 91.1458Z" fill="#000000" fill-opacity="0.4" transform="matrix(1 0 0 1.00019 185 -77.5836)"/><path d="M400.978 589.258C404.57 567.541 409.554 546.077 415.898 525 422.826 501.84 431.202 478.142 440.79 454.59 450.379 431.038 461.307 407.012 473.266 383.25 485.224 359.488 497.875 335.781 511.109 312.466L513.844 307.708 354.339 307.708 354.339 289.297 538.9 289.297 538.9 297.062C528.062 316.395 517.936 335.143 508.822 352.333 499.525 369.952 490.875 387.178 483.128 403.512 475.38 419.845 468.234 436.042 462.009 451.318 455.784 466.594 450.087 482.207 445.165 497.474 440.243 512.741 435.887 528.464 432.277 543.876 428.841 558.542 425.842 573.809 423.363 589.258Z" fill="#000000" fill-opacity="0.4" transform="matrix(1 0 0 1.00019 185 -77.5836)"/></g></svg>