<svg width="875" height="720" xmlns="http://www.w3.org/2000/svg" xmlns:xlink="http://www.w3.org/1999/xlink" xml:space="preserve" overflow="hidden"><g transform="translate(-185 0)"><path d="M437.5 109.375C618.773 109.319 765.77 256.226 765.826 437.5 765.881 618.773 618.974 765.77 437.701 765.826 256.427 765.881 109.431 618.974 109.375 437.701 109.375 437.664 109.375 437.628 109.375 437.591 109.555 256.432 256.342 109.607 437.5 109.375M437.5 91.1458C246.158 91.0905 91.0007 246.158 90.9453 437.5 90.89 628.841 245.958 783.999 437.299 784.055 628.641 784.11 783.799 629.042 783.854 437.701 783.854 437.664 783.854 437.628 783.854 437.591 783.954 246.355 629.009 91.2461 437.773 91.1458 437.682 91.1458 437.591 91.1458 437.5 91.1458Z" fill="#156082" transform="matrix(1 0 0 1.00019 185 -77.5836)"/><path d="M437.801 585.056C425.228 585.195 412.727 583.128 400.868 578.949 390.188 575.155 380.384 569.239 372.048 561.559 363.882 553.888 357.441 544.566 353.154 534.215 348.476 522.682 346.164 510.327 346.354 497.884 346.381 489.977 347.559 482.117 349.854 474.551 352.198 466.804 355.728 459.468 360.318 452.803 365.155 445.841 370.99 439.628 377.635 434.365 384.777 428.732 392.778 424.285 401.333 421.194L408.124 418.697 401.689 415.361C388.958 408.988 378.016 399.543 369.852 387.88 362.136 376.783 358.042 363.571 358.13 350.055 358.037 339.775 360.093 329.589 364.164 320.15 368.078 311.212 373.751 303.153 380.844 296.452 388.176 289.607 396.778 284.265 406.164 280.729 426.798 273.139 449.464 273.171 470.076 280.82 479.46 284.415 488.065 289.781 495.423 296.625 502.512 303.306 508.152 311.371 511.993 320.323 515.987 329.713 518.006 339.824 517.927 350.027 517.947 356.802 516.914 363.54 514.865 369.997 512.841 376.375 509.916 382.431 506.178 387.98 502.36 393.652 497.809 398.795 492.643 403.275 487.225 407.954 481.296 412.008 474.97 415.361L468.736 418.678 475.344 421.167C483.753 424.257 491.603 428.696 498.586 434.31 505.115 439.601 510.84 445.812 515.585 452.749 520.126 459.44 523.627 466.781 525.966 474.523 528.261 482.089 529.44 489.95 529.466 497.857 529.637 510.269 527.357 522.594 522.758 534.124 518.566 544.489 512.201 553.835 504.091 561.531 495.775 569.234 485.97 575.152 475.28 578.922 463.237 583.125 450.555 585.201 437.801 585.056ZM437.801 428.048C428.462 427.962 419.197 429.709 410.53 433.189 402.394 436.475 394.995 441.349 388.764 447.526 382.531 453.811 377.641 461.296 374.391 469.529 370.898 478.408 369.152 487.878 369.25 497.419 369.121 507.17 370.783 516.862 374.154 526.012 377.25 534.292 382.04 541.836 388.217 548.16 394.379 554.37 401.78 559.212 409.938 562.37 418.834 565.744 428.286 567.414 437.801 567.292 447.227 567.382 456.585 565.675 465.372 562.26 473.526 559.078 480.94 554.258 487.156 548.096 493.361 541.808 498.221 534.321 501.439 526.094 504.955 516.961 506.696 507.241 506.57 497.456 506.606 488.332 504.941 479.281 501.658 470.768 498.5 462.553 493.783 455.025 487.767 448.602 481.651 442.151 474.277 437.023 466.102 433.535 457.144 429.784 447.511 427.917 437.801 428.048ZM437.801 292.414C429.774 292.365 421.818 293.936 414.413 297.035 407.441 299.992 401.153 304.351 395.937 309.841 390.782 315.333 386.756 321.783 384.089 328.827 381.301 336.152 379.892 343.931 379.932 351.768 379.889 359.736 381.439 367.632 384.49 374.992 387.342 382.002 391.555 388.377 396.885 393.75 402.21 399.05 408.483 403.301 415.379 406.283 429.836 412.469 446.194 412.469 460.651 406.283 467.572 403.287 473.855 398.996 479.163 393.641 484.481 388.207 488.727 381.818 491.677 374.81 494.775 367.525 496.354 359.684 496.316 351.768 496.373 343.728 494.823 335.758 491.759 328.326 488.897 321.323 484.724 314.932 479.464 309.495 474.192 304.086 467.875 299.807 460.897 296.917 453.58 293.908 445.74 292.378 437.828 292.414Z" fill="#156082" transform="matrix(1 0 0 1.00019 185 -77.5836)"/></g></svg>