<svg width="875" height="720" xmlns="http://www.w3.org/2000/svg" xmlns:xlink="http://www.w3.org/1999/xlink" xml:space="preserve" overflow="hidden"><g transform="translate(-185 0)"><path d="M437.5 109.375C618.773 109.319 765.77 256.226 765.826 437.5 765.881 618.773 618.974 765.77 437.701 765.826 256.427 765.881 109.431 618.974 109.375 437.701 109.375 437.664 109.375 437.628 109.375 437.591 109.555 256.432 256.342 109.607 437.5 109.375M437.5 91.1458C246.158 91.0905 91.0007 246.158 90.9453 437.5 90.89 628.841 245.958 783.999 437.299 784.055 628.641 784.11 783.799 629.042 783.854 437.701 783.854 437.664 783.854 437.628 783.854 437.591 783.96 246.361 629.022 91.2516 437.792 91.1458 437.694 91.1458 437.598 91.1458 437.5 91.1458Z" fill="#E97132" transform="matrix(1 0 0 1.00019 185 -77.5836)"/><path d="M408.534 585.484C392.919 585.564 377.42 582.783 362.806 577.281L362.806 557.047C377.274 564.051 393.107 567.786 409.181 567.984 438.109 569.088 465.484 554.893 481.25 530.615 497.766 506.206 506.142 470.358 506.142 424.056L506.142 420.866 500.053 420.866 499.215 422.689C485.98 451.345 463.449 465.272 430.327 465.272 418.655 465.399 407.086 463.089 396.357 458.491 386.323 454.121 377.301 447.723 369.861 439.697 362.246 431.318 356.361 421.517 352.543 410.858 348.291 398.886 346.196 386.255 346.354 373.552 346.195 359.844 348.552 346.223 353.309 333.366 357.61 321.84 364.131 311.271 372.504 302.258 380.721 293.612 390.656 286.781 401.671 282.206 413.407 277.386 425.989 274.966 438.676 275.087 451.626 274.887 464.43 277.843 475.982 283.701 487.271 289.729 496.857 298.506 503.854 309.221 512.21 322.271 518.196 336.693 521.536 351.823 525.919 371.26 528.005 391.144 527.753 411.068 528.055 436.148 525.359 461.175 519.723 485.616 515.314 505.075 507.474 523.594 496.572 540.303 487.198 554.478 474.406 566.064 459.375 573.991 443.601 581.863 426.16 585.806 408.534 585.484ZM435.677 292.578C426.354 292.492 417.13 294.49 408.68 298.43 400.546 302.262 393.286 307.726 387.352 314.48 381.207 321.603 376.441 329.806 373.297 338.671 369.819 348.486 368.091 358.837 368.193 369.25 368.051 380.18 369.695 391.06 373.06 401.461 375.982 410.514 380.701 418.883 386.932 426.07 392.932 432.815 400.366 438.132 408.689 441.629 417.514 445.279 426.984 447.109 436.534 447.007 445.537 447.056 454.452 445.217 462.702 441.611 470.634 438.172 477.853 433.278 483.984 427.182 490.077 421.065 494.946 413.842 498.331 405.9 501.864 397.637 503.66 388.736 503.608 379.75 503.721 367.896 502.053 356.09 498.659 344.732 495.726 334.806 491.026 325.491 484.786 317.233 478.998 309.713 471.638 303.545 463.221 299.159 454.706 294.771 445.256 292.512 435.677 292.578Z" fill="#E97132" transform="matrix(1 0 0 1.00019 185 -77.5836)"/></g></svg>